<svg width="58" height="58" fill="none" xmlns="http://www.w3.org/2000/svg"><path fill-rule="evenodd" clip-rule="evenodd" d="m23.706 50.75-3.263-1.746 1.46-3.444a8.278 8.278 0 0 1-1.311-1.598l-3.664.753-1.072-3.544 3.469-1.402c-.02-.7.05-1.39.204-2.058l-3.124-2.057 1.747-3.264 3.445 1.46a8.234 8.234 0 0 1 1.599-1.31l-.754-3.662 3.544-1.073 1.403 3.466c.7-.017 1.391.051 2.058.206l2.059-3.123 3.263 1.748-1.46 3.443c.498.47.94 1.005 1.313 1.6l3.66-.755 1.074 3.545-3.466 1.402a8.265 8.265 0 0 1-.206 2.058l3.124 2.056-1.75 3.263-3.443-1.46c-.47.498-1.006.94-1.6 1.313l.755 3.661-3.546 1.071-1.403-3.466c-.699.02-1.39-.05-2.056-.205l-2.059 3.123Z" fill="#FFEB40"/><path clip-rule="evenodd" d="m36.05 27.466-2.938-1.573 1.314-3.098a7.412 7.412 0 0 1-1.18-1.439l-3.297.679-.963-3.19 3.12-1.261c-.017-.63.046-1.251.185-1.85l-2.812-1.853 1.573-2.936 3.098 1.313a7.324 7.324 0 0 1 1.441-1.179l-.679-3.295 3.188-.965 1.264 3.119c.63-.016 1.251.047 1.851.184l1.852-2.81 2.936 1.574-1.312 3.098a7.35 7.35 0 0 1 1.179 1.438l3.294-.678.965 3.189-3.118 1.262a7.445 7.445 0 0 1-.184 1.85l2.81 1.853-1.575 2.936-3.097-1.314a7.413 7.413 0 0 1-1.44 1.18l.68 3.295-3.191.964-1.263-3.118a7.441 7.441 0 0 1-1.85-.185l-1.852 2.81Z" stroke="#131313" stroke-width="1.4" stroke-linecap="round" stroke-linejoin="round"/><path clip-rule="evenodd" d="M38.722 14.622c1.698-.514 3.093.233 3.607 1.93.512 1.698-.234 3.093-1.933 3.605-1.696.514-3.091-.234-3.605-1.93-.514-1.697.235-3.092 1.931-3.605ZM17.191 49.776l-3.83-2.05 1.714-4.043a9.63 9.63 0 0 1-1.539-1.875l-4.298.884-1.26-4.16 4.071-1.645a9.626 9.626 0 0 1 .24-2.413l-3.666-2.416 2.051-3.83 4.043 1.714a9.635 9.635 0 0 1 1.876-1.539l-.885-4.297 4.159-1.258 1.648 4.068a9.59 9.59 0 0 1 2.414.24l2.415-3.665 3.831 2.052-1.712 4.04A9.723 9.723 0 0 1 30 31.459l4.299-.883 1.258 4.158-4.068 1.646a9.651 9.651 0 0 1-.24 2.415l3.664 2.414-2.052 3.83-4.04-1.712a9.733 9.733 0 0 1-1.878 1.538l.883 4.296-4.158 1.258-1.647-4.067a9.66 9.66 0 0 1-2.415-.24l-2.415 3.664Z" stroke="#131313" stroke-width="1.4" stroke-linecap="round" stroke-linejoin="round"/><path fill-rule="evenodd" clip-rule="evenodd" d="M20.285 31.73a5.123 5.123 0 1 1 2.965 9.807 5.123 5.123 0 0 1-2.965-9.807Z" fill="#fff" stroke="#131313" stroke-width="1.4" stroke-linecap="round" stroke-linejoin="round"/></svg>