<svg width="58" height="58" fill="none" xmlns="http://www.w3.org/2000/svg"><path fill-rule="evenodd" clip-rule="evenodd" d="m23.51 29.87 5.198-3.333 5.199 3.333-1.384-5.655 4.595-4.381-5.254-.443h-.546l-2.32-5.264-2.51 5.17-5.77.537 4.202 3.893-1.41 6.143Z" fill="#fff"/><path d="M44.657 30.215V15.45a5.3 5.3 0 0 0-5.3-5.3h-2.45a5.3 5.3 0 0 0-5.3 5.3v26.309c7.169 0 13.05-5.202 13.05-11.544Z" fill="#FFEA52"/><path fill-rule="evenodd" clip-rule="evenodd" d="m23.51 29.953 5.198-3.333 5.199 3.333-1.384-5.655 4.595-4.381-5.254-.443h-.546l-2.32-5.264-2.51 5.17-5.77.537 4.202 3.893-1.41 6.143Z" fill="#fff"/><path d="m28.707 13.63.647-.269a.7.7 0 0 0-1.299.014l.652.255Zm2.417 5.812-.646.268a.7.7 0 0 0 .6.43l.046-.698Zm5.993.392.463.525a.7.7 0 0 0-.417-1.224l-.046.699Zm-4.696 4.128-.462-.526a.7.7 0 0 0-.216.697l.678-.17Zm1.485 5.908-.366.597a.7.7 0 0 0 1.045-.767l-.68.17Zm-5.32-3.26.366-.597a.7.7 0 0 0-.744.008l.378.59Zm-5.076 3.26-.682-.156a.7.7 0 0 0 1.06.745l-.378-.589Zm1.409-6.143.682.157a.7.7 0 0 0-.231-.692l-.451.535Zm-4.622-3.893-.06-.698a.7.7 0 0 0-.39 1.233l.45-.535Zm6.19-.537.06.697a.7.7 0 0 0 .592-.442l-.651-.255Zm15.56-7.697v-.7a.7.7 0 0 0-.7.7h.7Zm8.12 0 .658.238a.7.7 0 0 0-.658-.938v.7Zm-8.12 9.86h-.7a.7.7 0 0 0 1.022.621l-.322-.62ZM15.948 11.6h.7a.7.7 0 0 0-.7-.7v.7Zm-8.12 0v-.7a.7.7 0 0 0-.658.938l.658-.238Zm8.12 9.86-.322.621a.7.7 0 0 0 1.022-.62h-.7Zm1.16 27.72a.7.7 0 1 0 0 1.4v-1.4Zm23.78 1.4a.7.7 0 1 0 0-1.4v1.4Zm-11.48-10.27a.7.7 0 1 0-1.4 0h1.4Zm-1.4 8.99a.7.7 0 1 0 1.4 0h-1.4ZM15.949 8.41v-.7a.7.7 0 0 0-.7.7h.7Zm26.1 0h.7a.7.7 0 0 0-.7-.7v.7ZM28.061 13.9l2.417 5.811 1.292-.537-2.416-5.812-1.293.538Zm3.017 6.241 5.994.392.091-1.397-5.993-.392-.092 1.397Zm5.577-.832-4.696 4.128.925 1.052 4.696-4.129-.925-1.051Zm-4.913 4.825 1.485 5.908 1.358-.341L33.1 23.79l-1.358.342Zm2.53 5.14-5.32-3.26-.732 1.194 5.32 3.26.732-1.194Zm-6.064-3.252-5.076 3.26.756 1.178 5.076-3.26-.756-1.178Zm-4.016 4.006 1.41-6.143-1.365-.313-1.41 6.143 1.365.313Zm1.178-6.835-4.622-3.894-.902 1.07 4.622 3.894.902-1.07Zm-5.012-2.661 6.19-.537-.121-1.394-6.19.536.12 1.395Zm6.781-.979 2.22-5.666-1.304-.511-2.22 5.667 1.304.51ZM42.047 12.3h8.12v-1.4h-8.12v1.4Zm7.462-.938c-1.708 4.723-4.438 7.741-7.784 9.477l.644 1.242c3.694-1.915 6.643-5.227 8.456-10.243l-1.316-.476ZM42.747 21.46V11.6h-1.4v9.86h1.4ZM15.948 10.9h-8.12v1.4h8.12v-1.4Zm-8.778.938c1.812 5.016 4.763 8.328 8.456 10.243l.645-1.242c-3.346-1.736-6.078-4.754-7.784-9.477l-1.317.476Zm9.478 9.622V11.6h-1.4v9.86h1.4Zm.46 29.12h23.78v-1.4h-23.78v1.4Zm23.78-1.4h-23.78v1.4h23.78v-1.4Zm-12.88-8.87v8.99h1.4v-8.99h-1.4Zm1.4 8.99v-8.99h-1.4v8.99h1.4ZM15.949 9.11h26.1v-1.4h-26.1v1.4Zm25.4-.7v20.065h1.4V8.41h-1.4Zm0 20.065c0 5.878-5.485 10.845-12.35 10.845v1.4c7.472 0 13.75-5.438 13.75-12.245h-1.4ZM29 39.32v1.4-1.4Zm0 0c-6.866 0-12.35-4.96-12.35-10.845h-1.4c0 6.815 6.277 12.245 13.75 12.245v-1.4Zm-12.35-10.845V8.41h-1.4v20.065h1.4Z" fill="#2F302F"/></svg>