<svg width="58" height="58" fill="none" xmlns="http://www.w3.org/2000/svg"><mask id="a" mask-type="alpha" maskUnits="userSpaceOnUse" x="35" y="36" width="13" height="12"><path fill-rule="evenodd" clip-rule="evenodd" d="M35.726 36.05h11.601v11.6H35.726v-11.6Z" fill="#fff"/></mask><g mask="url(#a)"><path fill-rule="evenodd" clip-rule="evenodd" d="M47.304 41.334a5.802 5.802 0 0 1-11.555 1.033 5.802 5.802 0 0 1 11.555-1.033Z" fill="#FFEB40"/></g><path fill-rule="evenodd" clip-rule="evenodd" d="M30.144 28.895a1.434 1.434 0 0 1-1.416-1.336l-.514-6.056a1.812 1.812 0 0 1 1.84-1.72l6.978.26c2.864.05 4.704 4.122 5.138 7.041.159 1.067-.696 2.017-1.774 2.006l-10.252-.195Z" fill="#FFEB40"/><path d="M24.199 17.038v9.647M8.1 26.685h33.46M10.347 40.323H9.09c-1.099 0-2.064-.93-2.064-2.065V26.101l1.624-8.226c.22-1.115 1.349-2.176 2.481-2.176 18.445 0 12.281.116 21.652-.039 2.742-.045 4.921 10.184 7.58 10.767l8.338 1.835c1.865.41 2.49 2.29 2.49 2.975v7.021c0 1.11-1.37 2.065-2.48 2.065h-2.423M34.438 40.323h-12.95" stroke="#000" stroke-width="1.4" stroke-linecap="round" stroke-linejoin="round"/><path clip-rule="evenodd" d="M15.903 38.384a2.045 2.045 0 1 1 0 4.09 2.046 2.046 0 1 1 0-4.09ZM40.121 38.384a2.045 2.045 0 1 1 .001 4.089 2.045 2.045 0 0 1 0-4.09Z" stroke="#000" stroke-width="1.4" stroke-linecap="round" stroke-linejoin="round"/><path clip-rule="evenodd" d="M40.12 35.097a5.332 5.332 0 1 1 0 10.664 5.332 5.332 0 0 1 0-10.664ZM15.902 35.097a5.332 5.332 0 1 1 0 10.664 5.332 5.332 0 0 1 0-10.664Z" stroke="#000" stroke-width="1.4" stroke-linecap="round" stroke-linejoin="round"/></svg>