<svg width="58" height="58" fill="none" xmlns="http://www.w3.org/2000/svg"><path fill-rule="evenodd" clip-rule="evenodd" d="M32.1 17.78 21.58 29.85c.07 1.32 13.68 16.67 14.65 15.77l11.82-11.08 2.27-2.13a11.78 11.78 0 0 0-7.58-20.33c-2.8-.1-5.62.8-7.9 2.73l-2.76 2.56" fill="#FFEB40"/><path d="M30.38 40.82a.7.7 0 1 0-1 .98l1-.98Zm2.27 3.3-.5.49.5-.5Zm4.3-4.4a.7.7 0 0 0-1 .96l1-.97Zm-4.88-5.22a.7.7 0 0 0-1 .97l1-.97Zm5.05 6.2-.5.5.5-.5Zm3.9-4.01.5-.49-.5.49Zm-4.92-6.1a.7.7 0 0 0-1.01.96l1-.97Zm-1.46-9.52a.7.7 0 1 0-1.02.96l1.02-.96ZM44.9 32.89l-.51.48.5-.48ZM41 36.69l.5-.49-.5.49Zm-4.54-5.72a.7.7 0 0 0-1 .98l1-.98Zm-24.85.38a.7.7 0 0 0 1-1l-1 1Zm-2.28-3.29-.5.5.5-.5ZM25.54 12l.49-.5-.5.5Zm1.37 2.37a.7.7 0 0 0 1-1l-1 1Zm17.26 17.3a.7.7 0 0 0 .99 1l-1-1Zm3.28-2.3.5.5-.5-.5ZM46 13.88l-.51.48.5-.48Zm-4.24-3.42-.34.61.34-.6Zm-12.15 1.22-.5-.5.5.5Zm-8.36 8.35.5.5-.5-.5Zm6.32 1.59.49.5-.5-.5Zm2.1-2.08-.47-.52-.02.02.5.5Zm12.33-.48a.7.7 0 0 0-.87-1.1l.87 1.1ZM29.38 41.8l2.77 2.8 1-.98-2.77-2.8-1 .98Zm2.77 2.8c1.46 1.48 3.54 1.1 4.75.04a3.29 3.29 0 0 0 1.15-2.22 3.55 3.55 0 0 0-1.1-2.7l-1 .96c.58.62.74 1.18.7 1.64a1.9 1.9 0 0 1-.67 1.27c-.82.72-2.04.84-2.83.03l-1 .99Zm-1.08-9.13 5.54 5.73 1-.98-5.54-5.72-1 .97Zm5.54 5.73c1.46 1.5 3.58 1.06 4.8-.02a3.42 3.42 0 0 0 1.2-2.25 3.48 3.48 0 0 0-1.1-2.73l-1 .97c.58.61.74 1.18.7 1.64-.04.48-.3.95-.72 1.32-.87.77-2.1.88-2.87.1l-1 .97Zm4.9-5-5.41-5.62-1.01.97 5.42 5.62 1-.97Zm-7.89-14.17L44.4 33.37l1.01-.96-10.76-11.34-1.02.96ZM44.4 33.37c.78.83.64 2.09-.08 2.92-.35.4-.79.64-1.23.66-.43.03-.97-.14-1.57-.75l-1 .97a3.4 3.4 0 0 0 2.65 1.18 3.2 3.2 0 0 0 2.2-1.14c1.06-1.22 1.46-3.32.04-4.8l-1.01.96ZM41.5 36.2l-5.04-5.23-1 .98 5.04 5.22 1-.97Zm-28.9-5.84-2.78-2.8-.99 1 2.78 2.79 1-1Zm-2.78-2.8a8.28 8.28 0 0 1-2.5-7.13 12.14 12.14 0 0 1 3.6-6.84A12.3 12.3 0 0 1 17.81 10a8.46 8.46 0 0 1 7.22 2.49l.98-1a9.85 9.85 0 0 0-8.38-2.88 13.7 13.7 0 0 0-7.7 3.97 13.53 13.53 0 0 0-4 7.65 9.67 9.67 0 0 0 2.9 8.32l1-1Zm15.2-15.07 1.88 1.88 1-1-1.88-1.87-1 1Zm20.13 20.18 2.78-2.8-.99-.98-2.78 2.79.99.99Zm2.78-2.8a9.45 9.45 0 0 0 2.73-8.6c-.5-2.92-2.15-5.71-4.15-7.87l-1.02.95a14.66 14.66 0 0 1 3.8 7.16 8.05 8.05 0 0 1-2.35 7.38l1 .98ZM46.52 13.4a18.53 18.53 0 0 0-4.4-3.56l-.7 1.22c1.44.81 2.84 1.96 4.08 3.29l1.02-.95Zm-4.4-3.55a12.98 12.98 0 0 0-5.64-1.38 9.95 9.95 0 0 0-7.35 2.7l.98 1a8.56 8.56 0 0 1 6.34-2.3c2.18.05 4.1.7 4.98 1.2l.68-1.22Zm-13 1.32-8.36 8.36 1 .99 8.35-8.36-.99-.99Zm-8.36 8.36c-.35.35-.6.75-.68 1.19-.1.45-.01.87.2 1.24a3.4 3.4 0 0 0 2 1.44c1.68.53 4.12.36 5.79-1.3l-.99-.99a4.49 4.49 0 0 1-4.38.96c-.67-.21-1.06-.53-1.2-.78a.4.4 0 0 1-.05-.3 1 1 0 0 1 .3-.47l-.99-.99Zm7.3 2.58 2.11-2.09-.98-1-2.1 2.1.98.99Zm2.1-2.07c.6-.55 1.22-.69 1.95-.63.79.07 1.62.36 2.66.66 1 .3 2.14.59 3.36.53a6.63 6.63 0 0 0 3.88-1.55l-.87-1.1a5.24 5.24 0 0 1-3.08 1.25 8.7 8.7 0 0 1-2.9-.47c-.93-.28-1.96-.63-2.93-.71a3.78 3.78 0 0 0-3.02.99l.94 1.03Z" fill="#131313"/><path d="m30.36 41.52.5-.5-.5.5Zm.3.3-.5.49.5-.5Zm0 3.65-.5-.5.5.5Zm-2.58 2.59-.5-.5.5.5Zm-3.64 0 .5-.5-.5.5Zm-.3-.3-.49.5.5-.5Zm0-3.66.5.5-.5-.5Zm2.58-2.58.5.5V42l-.5-.5Zm.95-5.47-.5.5.5-.5Zm.3.3.49-.5-.5.5Zm0 3.65.49.5-.5-.5Zm-4.2 4.2-.49-.48.5.49Zm-3.64 0 .5-.48-.5.49Zm-.3-.29-.49.5.5-.5Zm0-3.66-.49-.5v.01l.5.5Zm4.2-4.2.5.5-.5-.5Zm1.14-5.74-.5.5.5-.5Zm.3.3-.5.5.5-.5Zm0 3.66-.5-.5.5.5Zm-6.1 6.14-.5-.5.5.5Zm-3.65 0-.5.49.5-.5Zm-.3-.3.5-.5-.5.5Zm0-3.66.5.5-.5-.5Zm6.1-6.14-.49-.5v.01l.5.5Zm-2.8-1.76-.5.5.5-.5Zm.3.3.5-.5-.5.5Zm0 3.66.5.5-.5-.5Zm-3.84 3.85-.5-.5.5.5Zm-3.64 0 .5-.5-.5.5Zm-.3-.3-.49.5.5-.5Zm0-3.66.5.5-.5-.5Zm3.84-3.85-.5-.5.5.5Zm14.78 13.46.3.3 1-.99-.3-.3-1 .99Zm.3.3a1.9 1.9 0 0 1 0 2.67l1 .99a3.3 3.3 0 0 0 0-4.65l-1 .99Zm0 2.67-2.57 2.58.99.99 2.57-2.58-1-1Zm-2.57 2.58c-.73.73-1.93.73-2.65 0l-1 .99a3.28 3.28 0 0 0 4.64 0l-1-.99Zm-2.65 0-.3-.3-.99 1 .3.3.99-1Zm-.3-.3a1.9 1.9 0 0 1 0-2.67l-.99-.98a3.3 3.3 0 0 0 0 4.64l1-.98Zm0-2.67 2.57-2.58-.99-.99-2.57 2.59 1 .98Zm2.57-2.58a1.88 1.88 0 0 1 2.65 0l1-.99a3.28 3.28 0 0 0-4.64 0l1 .99Zm-.04-5.47.3.3.99-1-.3-.29-.99 1Zm.3.3a1.9 1.9 0 0 1 0 2.67l.99.99a3.3 3.3 0 0 0 0-4.65l-1 .99Zm0 2.67-4.19 4.2 1 1 4.18-4.21-1-1Zm-4.19 4.2c-.73.74-1.92.74-2.65 0l-1 1a3.28 3.28 0 0 0 4.64 0l-.99-1Zm-2.65 0-.3-.3-.99 1 .3.3.99-1Zm-.3-.3a1.9 1.9 0 0 1 0-2.66l-.99-.99a3.3 3.3 0 0 0 0 4.65l1-1Zm0-2.66 4.2-4.2-1-1-4.19 4.2 1 1Zm4.2-4.2a1.87 1.87 0 0 1 2.64 0l1-1a3.27 3.27 0 0 0-4.64 0l1 1Zm.15-5.74.3.3.98-1-.3-.29-.98.99Zm.3.3a1.9 1.9 0 0 1 0 2.66l.98 1a3.3 3.3 0 0 0 0-4.65l-.99.98Zm0 2.66-6.12 6.14 1 .99 6.1-6.14-.99-.98Zm-6.12 6.14c-.72.73-1.92.73-2.65 0l-.99.99a3.28 3.28 0 0 0 4.64 0l-1-.99Zm-2.64 0-.3-.3-1 1 .3.29 1-.99Zm-.3-.3a1.9 1.9 0 0 1 0-2.67l-1-.98a3.3 3.3 0 0 0 0 4.64l1-.99Zm0-2.67 6.1-6.13-.99-.99-6.1 6.14.99.98Zm6.1-6.13a1.87 1.87 0 0 1 2.66 0l.99-.99a3.28 3.28 0 0 0-4.64 0l1 .99Zm-3.8-1.77.3.3 1-.99-.3-.3-1 1Zm.3.3c.73.73.73 1.94 0 2.67l1 1a3.31 3.31 0 0 0 0-4.66l-1 1Zm0 2.67-3.83 3.86 1 .98L19.51 33l-1-.99Zm-3.83 3.86c-.72.72-1.92.73-2.65 0l-1 .98a3.28 3.28 0 0 0 4.64 0l-1-.98Zm-2.65 0-.3-.3-.99.99.3.3.99-1Zm-.3-.3a1.9 1.9 0 0 1 0-2.67l-.99-.99a3.3 3.3 0 0 0 0 4.65l1-.99Zm0-2.67 3.84-3.86-1-.98-3.83 3.85 1 .99Zm3.84-3.86a1.88 1.88 0 0 1 2.65 0l.99-.98a3.28 3.28 0 0 0-4.64 0l1 .98Z" fill="#131313"/></svg>