<svg width="58" height="58" fill="none" xmlns="http://www.w3.org/2000/svg"><mask id="a" mask-type="alpha" maskUnits="userSpaceOnUse" x="37" y="13" width="16" height="34"><path fill-rule="evenodd" clip-rule="evenodd" d="M37.4565 13.6128h15.4052v32.3988H37.4565V13.6128Z" fill="#fff"/></mask><g mask="url(#a)"><path fill-rule="evenodd" clip-rule="evenodd" d="M49.5628 46.0116h-8.8093c-1.821 0-3.297-1.4796-3.297-3.3031V16.9159c0-1.8251 1.476-3.3031 3.297-3.3031h8.8093c1.8225 0 3.3 1.478 3.3 3.3031v25.7926c0 1.8235-1.4775 3.3031-3.3 3.3031Z" fill="#FFEB40"/></g><path clip-rule="evenodd" d="M4.82849 40.9947H49.0645V10.3408H4.82849v30.6539Z" stroke="#000" stroke-width="1.4" stroke-linecap="round" stroke-linejoin="round"/><path d="M32.7516 43.0975v3.9171H21.1429v-6.02h11.6087M16.9819 47.0151H36.913M4.82812 35.87H46.5452M36.1901 19.7837l4.6218 4.6284-4.6218 4.6284M17.7026 19.7837l-4.6219 4.6284 4.6219 4.6284M29.4673 20.853l-5.0409 7.1185" stroke="#000" stroke-width="1.4" stroke-linecap="round" stroke-linejoin="round"/></svg>