<svg width="106" height="107" fill="none" xmlns="http://www.w3.org/2000/svg"><path fill-rule="evenodd" clip-rule="evenodd" d="m64.5477 80.843 7.4088-4.0177c1.7441-.9457 5.148-2.3804 5.1682 1.1653l1.2507-.8736c3.5117-2.4508 6.1867-.7139 4.8719 2.6739 6.2422-4.6269 8.4492 1.2306 5.6698 2.6671l-13.8126 8.897-5.8566 3.7706c-4.1413 2.667-9.6091 2.7082-11.1477 1.7729-8.7387-2.2964-11.2605-4.4846-18.8797-3.4874L64.5477 80.843ZM62.5396 23.2523c9.0731 0 16.431 7.356 16.431 16.431 0 9.073-7.3579 16.429-16.431 16.429-9.0749 0-16.429-7.356-16.429-16.429 0-9.075 7.3541-16.431 16.429-16.431Z" fill="#FFEB40"/><path d="m55.7425 69.686 11.3447-6.0756c2.6705-1.43 7.8828-3.5997 7.9137 1.7622l1.9153-1.321c5.3772-3.7061 9.4732-1.0797 7.46 4.0434 9.5583-6.9969 12.9378 1.8609 8.6819 4.0331l-21.1505 13.454-8.968 5.7019c-6.3413 4.0331-14.7139 4.0954-17.07 2.6809-13.3811-3.4725-17.2426-6.7815-28.9095-5.2736" stroke="#000" stroke-width="1.4" stroke-linecap="round" stroke-linejoin="round"/><path d="m10.6005 65.1744 13.8735-5.496c3.5395-1.4004 7.5056-1.0402 9 .0378 2.5027 1.8085 5.0106 3.617 7.5159 5.4229 10.4323 7.5337 11.2752 5.6497 23.5664 6.365 2.7225.1561 4.5142 4.428 0 6.1206-11.4716 5.1106-18.5532 2.8185-29.0114-2.3979M52.9556 20.0721v3.975M52.9556 41.7136v3.975M58.5264 25.9186c-1.8398-.6003-3.5012-1.1688-5.1669-1.3527-8.9755-.9913-10.1254 7.9029-.5717 7.8733 9.2828-.0296 8.4102 8.871-.5868 7.8712-1.6657-.186-3.325-.7545-5.154-1.3506" stroke="#000" stroke-width="1.4" stroke-linecap="round" stroke-linejoin="round"/><path clip-rule="evenodd" d="M52.9991 10.5322c12.2925 0 22.2613 9.9662 22.2613 22.2613 0 12.2926-9.9688 22.2587-22.2613 22.2587-12.2951 0-22.2587-9.9661-22.2587-22.2587 0-12.2951 9.9636-22.2613 22.2587-22.2613Z" stroke="#000" stroke-width="1.4" stroke-linecap="round" stroke-linejoin="round"/></svg>