<svg width="58" height="58" fill="none" xmlns="http://www.w3.org/2000/svg"><path fill-rule="evenodd" clip-rule="evenodd" d="M18.7507 22.233c.2367-.943 1.1611-1.5456 2.1217-1.3814l6.2914 1.0711c1.2185.36 1.9302 1.6208 1.6121 2.8485l-3.1593 11.6595c-.935 3.5988-5.1242 4.8039-8.947 4.4649-1.3949-.125-2.3359-1.4943-1.9935-2.8501l4.0746-15.8125ZM39.6208 22.6616c-.2896-.928.6943-.0623 1.5976-.4238l5.9265-2.3665c1.2275-.3284 2.4942.3735 2.8636 1.5877l3.3991 11.5917c1.0827 3.558-1.8594 6.7697-5.2976 8.4749-1.2547.6206-2.7717-.0557-3.1894-1.3904l-5.2998-17.4736Z" fill="#FFEB40"/><path d="m26.2724 21.4916-15.3138-.012M47.1582 21.5065l-15.4449-.0105" stroke="#2F302F" stroke-width="1.4" stroke-linecap="round" stroke-linejoin="round"/><path clip-rule="evenodd" d="m13.1065 13.5464 14.3848 3.8503-4.3295 18.619c-1.0405 4.474-5.6851 7.1312-9.9784 5.9819v0c-4.29327-1.1494-6.98806-5.765-5.64745-10.1636l5.57055-18.2876Z" stroke="#2F302F" stroke-width="1.4" stroke-linecap="round" stroke-linejoin="round"/><path d="m21.6253 26.9053-1.6648 7.6148c-.3348 1.5244-1.3708 2.719-2.5998 3.4571-1.229.7367-2.722.9988-4.1832.6071M17.3047 55.0572 3.07373 51.2476M13.1821 41.9971 10.329 52.6337" stroke="#2F302F" stroke-width="1.4" stroke-linecap="round" stroke-linejoin="round"/><path clip-rule="evenodd" d="m32.605 16.8157 10.5771-2.8305c.9154-.2455 1.8579.2787 2.1338 1.1825l5.076 16.6652c1.3391 4.3957-1.3542 9.0158-5.6475 10.1636v0c-4.2933 1.1509-8.9364-1.5033-9.9784-5.9788L30.9447 19.58c-.2835-1.2172.4509-2.4404 1.6603-2.7643Z" stroke="#2F302F" stroke-width="1.4" stroke-linecap="round" stroke-linejoin="round"/><path d="m44.6582 24.4404 2.3691 7.425c.475 1.4883.1749 3.0414-.5202 4.2932-.6952 1.2518-1.8579 2.2235-3.3176 2.6151M54.8499 51.249l-14.231 3.8097M44.7446 41.9971l2.8532 10.6381M20.7117 5.92041l3.6327 5.96829M29.0281 11.3706l.0934-8.58789M33.2621 12.0409l3.8921-5.80262" stroke="#2F302F" stroke-width="1.4" stroke-linecap="round" stroke-linejoin="round"/></svg>