<svg width="106" height="107" fill="none" xmlns="http://www.w3.org/2000/svg"><rect x="17" y="28.99" width="65.9" height="49.93" rx="4" transform="rotate(-5 17 29)" fill="#fff"/><path d="m26.65 39.24 48.42-4.23M27.78 52.19l28.5-2.49m-27.89 9.47 40.45-3.54M29 66.14l19.53-1.7M25.34 78.2l57.78-5.06a4 4 0 0 0 3.64-4.33L83.1 26.98a4 4 0 0 0-4.34-3.64L20.98 28.4a4 4 0 0 0-3.63 4.33L21 74.57a4 4 0 0 0 4.33 3.64Z" stroke="#000" stroke-width="1.4" stroke-linecap="round" stroke-linejoin="round"/><path d="M53.44 40.12a4.39 4.39 0 0 1 4.5 4.28l.34 11.5c.7-.8 1.76-1.4 2.97-1.41 2.25-.15 3.92 1.54 4.45 3.53a3.96 3.96 0 0 1 3.47-1.84c2.25-.15 3.92 1.54 4.45 3.53a3.96 3.96 0 0 1 3.47-1.85 4.39 4.39 0 0 1 4.5 4.29l-.2 17.43c-.3 14.25-19.96 21.65-28.38 9.58l-14.6-20.93a4.43 4.43 0 0 1 1.12-6.1c2.42-.03 6.52 1.61 7.8 3.56l2.75 3.99-.64-25.13a4.32 4.32 0 0 1 4-4.43Z" fill="#fff"/><path d="M62.73 61.49c-.04-1.98-2.13-3.53-4.62-3.5-2.3.12-4.25 1.78-4.1 3.61l1.08 24.86 2.58 2.59c8.64 9.85 28.81 3.8 29.12-7.83L87 67c-.04-1.98-2.13-3.53-4.62-3.5A4.4 4.4 0 0 0 78.82 65a4.46 4.46 0 0 0-4.57-2.88 4.4 4.4 0 0 0-3.56 1.5 4.46 4.46 0 0 0-4.56-2.88c-1.25.02-2.34.5-3.06 1.15l-.34-.4Z" fill="#FFEA52"/><path d="M53.44 40.12a4.39 4.39 0 0 1 4.5 4.28l.34 11.5c.7-.8 1.76-1.4 2.97-1.41 2.25-.15 3.92 1.54 4.45 3.53a3.96 3.96 0 0 1 3.47-1.84c2.25-.15 3.92 1.54 4.45 3.53a3.96 3.96 0 0 1 3.47-1.85 4.39 4.39 0 0 1 4.5 4.29l-.2 17.43c-.3 14.25-19.96 21.65-28.38 9.58l-14.6-20.93a4.43 4.43 0 0 1 1.12-6.1c2.42-.03 6.52 1.61 7.8 3.56l2.75 3.99-.64-25.13a4.32 4.32 0 0 1 4-4.43Z" stroke="#000" stroke-width="1.4" stroke-miterlimit="22.93" stroke-linecap="round" stroke-linejoin="round"/></svg>