<svg width="106" height="107" fill="none" xmlns="http://www.w3.org/2000/svg"><path d="M20.1 47.9h11.5c2.6 0 4.9 2 4.9 4.8v37.2c0 2.5-2 4.8-4.9 4.8H20.1a5 5 0 0 1-4.5-4.8V52.4c0-2.5 2-4.5 4.5-4.5Z" fill="#FFEA52"/><path d="M17.1 43.9h11.5c2.6 0 4.9 2 4.9 4.8v37.2c0 2.5-2 4.8-4.9 4.8H17.1a5 5 0 0 1-4.5-4.8V48.4c0-2.5 2-4.5 4.5-4.5Z" stroke="#000" stroke-width="1.4" stroke-miterlimit="22.9"/><path d="M22.5 77.3c1.3 0 2 1 2 2s-1 2-2 2-2-1-2-2 1-2 2-2Z" stroke="#000" stroke-width="1.4" stroke-miterlimit="22.9"/><path d="m36.3 51.5 19.9-18.3L63 19.3c1.5-3 7.4-2 8.7 1.3C73 23.6 71.5 32 70 35l-6.4 11.1 23.2-1.5c3.3-.2 6.6 2.3 6.6 5.6s-2.2 6.3-5.6 6.6c1.3 1 2 2.5 2.3 4.3.3 3-1.8 5.8-4.8 6.3a6 6 0 0 1 2.8 4.8c.2 3-1.8 5.9-4.9 6.4a6 6 0 0 1 2.8 4.8c.3 3.3-2.2 6.6-5.6 6.6l-25 .5c-9.2.2-17-4.9-21.7-11.7" stroke="#000" stroke-width="1.4" stroke-miterlimit="22.9" stroke-linecap="round" stroke-linejoin="round"/></svg>