<svg width="58" height="58" fill="none" xmlns="http://www.w3.org/2000/svg"><path d="M25.27 10.63a.7.7 0 1 0 1.4 0h-1.4Zm5.53 2 .45.53-.45-.53Zm-2.7 3.33a.7.7 0 1 0 1.4.05l-1.4-.05Zm-4.9.88a.7.7 0 0 0 .38 1.35l-.38-1.35Zm5.6-.85.19-.68a.7.7 0 0 0-.38 0l.19.68Zm5.87 2.38a.7.7 0 0 0 .38-1.35l-.38 1.35Zm-8-7.74c0-1.18.95-2.13 2.13-2.13V7.1a3.53 3.53 0 0 0-3.53 3.53h1.4ZM28.8 8.5c1.17 0 2.13.95 2.13 2.13h1.4A3.53 3.53 0 0 0 28.8 7.1v1.4Zm2.13 2.13c0 .63-.23 1.16-.58 1.46l.9 1.07a3.28 3.28 0 0 0 1.08-2.53h-1.4Zm-.58 1.46c-.38.32-.63.5-.92.74a4 4 0 0 0-.72.72c-.44.6-.57 1.31-.61 2.41l1.4.05c.03-1.05.16-1.4.33-1.63.1-.13.24-.27.48-.46.21-.18.58-.45.94-.76l-.9-1.07Zm-6.77 6.1 5.4-1.53-.37-1.35-5.41 1.53.38 1.35Zm5.03-1.53 6.06 1.71.38-1.35-6.06-1.7-.38 1.34Z" fill="#000"/><path fill-rule="evenodd" clip-rule="evenodd" d="M42.05 32.48V48.5a3.71 3.71 0 0 1-3.7 3.71H33a3.71 3.71 0 0 1-3.7-3.7V28.35a3.71 3.71 0 0 1 3.7-3.7h5.34a3.7 3.7 0 0 1 2.91 1.4 3.04 3.04 0 0 1 5.58.73l4.58 17.09a3.05 3.05 0 1 1-5.88 1.58l-3.48-12.98Z" fill="#FFEA52"/><path clip-rule="evenodd" d="m35.33 16.45.06-.12c3.25.69 7.57 1.7 9.76 5.07l4.7 23.98-5.9 2-4-17.45v20.6H18.3v-20.6l-4 17.44-5.88-1.99 4.7-23.98c1.98-3.06 6.4-4.36 9.76-5.07 1.27 2.93 2.52 6.45 6.3 6.49 4.37.04 4.86-3.2 6.15-6.37Z" stroke="#000" stroke-width="1.4" stroke-linecap="round" stroke-linejoin="round"/></svg>