<svg width="106" height="107" fill="none" xmlns="http://www.w3.org/2000/svg"><path fill="#fff" d="M106 1H0v106h106z"/><path d="M67.7 36.1c-6.6-10.6-6.2-22.5.6-26.6 6.8-4 17.4 1.2 24 11.9 6.6 10.6 6.2 22.5-.6 26.6-6.8 4-17.5-1.3-24-11.9Z" fill="#FFEA52" stroke="#000" stroke-width="1.4" stroke-miterlimit="10"/><path d="m68.3 9.3-7 4.3c-6.8 4.1-7 16-.6 26.6 6.6 10.6 17.2 16 24 11.9l7-4.3" stroke="#000" stroke-width="1.4" stroke-miterlimit="10"/><path d="m82 35.5-4.5 4.3-1.8-8.6c0-.4-.2-.8-.6-1.2l-5.2-7.4 6.6.4c.4 0 .6 0 .8-.4l4.5-4.3 1.9 8.6c0 .4.2.6.4 1l5.1 7.6L83 35c-.5 0-.7.2-.9.4Z" fill="#FFD600" stroke="#D0AF00" stroke-width="1.4" stroke-linejoin="round"/><path d="M31.3 44.4c6.4-6.3 8.3-14.8 4.2-18.8-4-4-12.5-2.2-19 4.2-6.3 6.3-8.2 14.8-4.1 18.8 4 4 12.5 2.2 19-4.2Z" fill="#FFEA52" stroke="#000" stroke-width="1.4" stroke-miterlimit="10"/><path d="m12.2 48.3 4.2 4.2c4 4 12.4 2.1 18.7-4.2 6.3-6.3 8.2-14.8 4.2-18.7L35 25.4" stroke="#000" stroke-width="1.4" stroke-miterlimit="10"/><path d="m20.4 40.4-4.2-1.9 5.5-3.3c.3-.1.5-.4.8-.7l4-5.1 1.1 4.5.5.5 4 2-5.7 3.3-.5.5-4 5.1-1.1-4.5-.4-.4Z" fill="#FFD600" stroke="#D0AF00" stroke-width="1.4" stroke-linejoin="round"/><path d="M49.8 98.2a21.3 21.3 0 0 1-21.4-21.3c0-11.7 9.6-21.2 21.4-21.2 11.8 0 21.4 9.5 21.4 21.2 0 11.8-9.6 21.3-21.4 21.3Z" fill="#FFEA52" stroke="#000" stroke-width="1.4"/><path d="m50.3 84.3 9.6 2.8c.2 0 .4-.1.4-.4l-2.9-9.2v-1.1l2.9-9.3c0-.2-.2-.4-.4-.3l-9.5 2.7a2 2 0 0 1-1.2 0l-9.5-2.7c-.2-.1-.4.1-.4.3l3 9.4-.1.9-2.9 9.3c0 .3.2.5.4.4l9.7-2.8h.9Z" fill="#FFD600" stroke="#D0AF00" stroke-width="1.4" stroke-linejoin="round"/></svg>