<svg width="106" height="106" fill="none" xmlns="http://www.w3.org/2000/svg"><rect x="17" y="28" width="65.9" height="49.9" rx="4" transform="rotate(-5 17 28)" fill="#fff"/><path d="M26.7 38.3 75 34M27.8 51.2l28.5-2.5m-27.9 9.5 40.4-3.6M29 65.1l19.5-1.7M25.3 77.2l57.8-5a4 4 0 0 0 3.7-4.4L83 26a4 4 0 0 0-4.3-3.7L21 27.4a4 4 0 0 0-3.7 4.3L21 73.6a4 4 0 0 0 4.3 3.6Z" stroke="#000" stroke-width="1.4" stroke-linecap="round" stroke-linejoin="round"/><path d="M53.4 39.1c2.5 0 4.5 1.9 4.5 4.3l.4 11.5a4 4 0 0 1 3-1.4c2.2-.1 3.9 1.5 4.4 3.5.6-1 2-1.9 3.5-1.8 2.2-.2 3.9 1.5 4.4 3.5.6-1 2.1-2 3.5-1.8 2.4 0 4.5 1.8 4.5 4.3l-.2 17.4c-.3 14.2-20 21.6-28.4 9.6l-14.6-21c-1.3-2-1-4.6 1.1-6 2.5 0 6.6 1.6 7.8 3.5l2.8 4-.7-25.1a4.3 4.3 0 0 1 4-4.5Z" fill="#fff"/><path d="M62.7 60.5c0-2-2.1-3.5-4.6-3.5-2.3.1-4.2 1.8-4 3.6l1 24.9 2.6 2.6c8.6 9.8 28.8 3.8 29-7.9L87 66c0-2-2.1-3.5-4.6-3.5-1.4 0-3 .6-3.6 1.5-.5-1.6-2.2-3-4.5-2.9-1.5 0-3 .6-3.6 1.5-.6-1.6-2.3-3-4.6-2.9-1.2 0-2.3.5-3 1.2l-.4-.4Z" fill="#FFEA52"/><path d="M53.4 39.1c2.5 0 4.5 1.9 4.5 4.3l.4 11.5a4 4 0 0 1 3-1.4c2.2-.1 3.9 1.5 4.4 3.5.6-1 2-1.9 3.5-1.8 2.2-.2 3.9 1.5 4.4 3.5.6-1 2.1-2 3.5-1.8 2.4 0 4.5 1.8 4.5 4.3l-.2 17.4c-.3 14.2-20 21.6-28.4 9.6l-14.6-21c-1.3-2-1-4.6 1.1-6 2.5 0 6.6 1.6 7.8 3.5l2.8 4-.7-25.1a4.3 4.3 0 0 1 4-4.5Z" stroke="#000" stroke-width="1.4" stroke-miterlimit="22.9" stroke-linecap="round" stroke-linejoin="round"/></svg>