<svg width="106" height="107" fill="none" xmlns="http://www.w3.org/2000/svg"><path d="m54.32 24.33 6.98 49.63a4 4 0 0 1-3.4 4.52l-37.32 5.24a4 4 0 0 1-4.52-3.4L9.64 34.64a4.15 4.15 0 0 1 3.39-4.6c3-.56 5.9-1.19 8.47-1.55" stroke="#000" stroke-width="1.4" stroke-linecap="round" stroke-linejoin="round"/><path d="m44.33 76.23 41.28 5.8a4 4 0 0 0 4.52-3.4l6.22-44.25a4 4 0 0 0-3.33-4.5l-5.52-.89" stroke="#000" stroke-width="1.4" stroke-linecap="round" stroke-linejoin="round"/><path fill-rule="evenodd" clip-rule="evenodd" d="M22.96 91.61a1 1 0 0 0 1.5 1.07l4.28-2.71 4.24 2.69a1 1 0 0 0 1.5-1.09l-1.08-4.4 3.97-3.75a1 1 0 0 0-.6-1.73l-4.18-.34h-.66l-1.96-4.4a1 1 0 0 0-1.81-.04l-2.12 4.32-4.8.44a1 1 0 0 0-.58 1.74l3.46 3.17-1.16 5.03ZM22.28 49.84a1 1 0 0 0 1.73.65l2.93-3.17L31 48.6a1 1 0 0 0 1.17-1.44l-1.85-3.33 2.46-3.96a1 1 0 0 0-1.02-1.51l-3.48.63-.58.15-2.6-3.18a1 1 0 0 0-1.75.43l-.8 4.02-3.84 1.42a1 1 0 0 0-.11 1.83l3.53 1.82.14 4.37ZM77.94 57.63a1 1 0 0 0 1.5 1.08l2.38-1.47 2.33 1.45a1 1 0 0 0 1.5-1.1l-.57-2.27 2.24-2.07a1 1 0 0 0-.6-1.73l-2.2-.18h-.47l-1.12-2.45a1 1 0 0 0-1.8-.03l-1.2 2.4-2.64.24a1 1 0 0 0-.58 1.74l1.88 1.68-.65 2.71Z" fill="#FFEA52" stroke="#000" stroke-width="1.4" stroke-linejoin="round"/><rect x="27.7" y="20.69" width="51.6" height="66.6" rx="3.3" fill="#fff" stroke="#000" stroke-width="1.4"/><path d="M47.5 60.5 43 63l1 13h23l.5-13-4.5-2.5-.5 10h-14l-1-10Z" fill="#FFEA52"/><path d="M61.1 46.56c0 6.09-3.42 11.12-7.66 11.12s-7.66-4.92-7.66-11.12" stroke="#000" stroke-width="1.4" stroke-miterlimit="22.93" stroke-linecap="round" stroke-linejoin="round"/><path d="M66.05 46.22v.12c-.48.94-4.72 1.52-10.02 1.52h-1.06c-5.3 0-9.54-.58-10.02-1.4v-.12c0-.94.83-1.64 2.13-1.52v-1.17c0-10.3 16.84-10.18 16.84 0v1.17c1.3-.12 2.13.47 2.13 1.4Z" fill="#FFEA52"/><path d="M64.05 44.22v.12c-.48.94-4.72 1.52-10.02 1.52h-1.06c-5.3 0-9.54-.58-10.02-1.4v-.12c0-.94.83-1.64 2.13-1.52v-1.17c0-10.3 16.84-10.18 16.84 0v1.17c1.3-.12 2.13.47 2.13 1.4ZM38.95 61.54l2.24-.94.47 13.69h-6.84l1.3-9.94c.12-.7.47-1.4.94-2 .47-.46 1.18-.58 1.89-.81ZM65.7 60.49l2.35.93c1.42.59 2.6 1.29 2.83 2.8l1.3 9.95h-6.96l.47-13.68ZM42.01 60.13l4-1.98.6 10.4h13.78l.6-10.4 4 1.98M64.87 74.17H42.13M51.9 34.04v5.62M55.1 34.04v5.62" stroke="#000" stroke-width="1.4" stroke-miterlimit="22.93" stroke-linecap="round" stroke-linejoin="round"/><path fill-rule="evenodd" clip-rule="evenodd" d="M72.28 91.63a1 1 0 0 0 1.5 1.07l3.02-1.88 2.96 1.85a1 1 0 0 0 1.5-1.09l-.74-2.98 2.82-2.63a1 1 0 0 0-.6-1.73l-2.87-.23h-.53l-1.4-3.1a1 1 0 0 0-1.8-.03l-1.51 3.04-3.36.3a1 1 0 0 0-.58 1.74l2.4 2.18-.81 3.49ZM73.1 24.07a1 1 0 0 0 1.14 1.47l4.19-1.15 2.8 3.26a1 1 0 0 0 1.76-.6l.2-3.84 4.22-2.08a1 1 0 0 0-.07-1.82l-3.32-1.32-.57-.18-.52-4.1a1 1 0 0 0-1.72-.56l-2.83 3.01-4.04-.84a1 1 0 0 0-1.06 1.5l2.04 3.44-2.21 3.81Z" fill="#FFEA52" stroke="#000" stroke-width="1.4" stroke-linejoin="round"/></svg>