<svg width="58" height="58" fill="none" xmlns="http://www.w3.org/2000/svg"><path d="m13.63 18.1 21.2 22.46" stroke="#000" stroke-width="1.4" stroke-miterlimit="22.93" stroke-linecap="round" stroke-linejoin="round"/><path d="M7.79 13.94 10.73 11l6.9 4.1L12 20.7 7.8 13.94Z" fill="#FFEA52"/><path d="m5.92 13.32 2.94-2.94 6.9 4.09-5.63 5.62-4.21-6.77Z" stroke="#000" stroke-width="1.4" stroke-miterlimit="22.93" stroke-linecap="round" stroke-linejoin="round"/><path d="m37.34 35.42 7.54 7.53a4.82 4.82 0 0 1 0 6.77 4.7 4.7 0 0 1-6.77 0l-7.54-7.53 6.77-6.77Z" fill="#fff"/><path d="m39.84 35.42 7.53 7.53a4.82 4.82 0 0 1 0 6.77 4.7 4.7 0 0 1-6.77 0l-7.53-7.53 6.77-6.77Z" fill="#FFEA52"/><path d="m37.34 35.42 7.54 7.53a4.82 4.82 0 0 1 0 6.77 4.7 4.7 0 0 1-6.77 0l-7.54-7.53 6.77-6.77Z" stroke="#000" stroke-width="1.4" stroke-miterlimit="22.93" stroke-linecap="round" stroke-linejoin="round"/><path d="M34.09 15.03 7.37 41.1a4.48 4.48 0 0 0 .02 6.33l.07.07a4.5 4.5 0 0 0 6.34.03l26.73-26.08-6.44-6.4Z" fill="#fff" stroke="#000" stroke-width="1.4" stroke-miterlimit="10" stroke-linecap="round" stroke-linejoin="round"/><path d="M45.39 29.54c.62 0 1.2-.24 1.64-.68l4.44-4.44c.9-.9.9-2.38 0-3.28l-1.94-1.94a.69.69 0 0 0-.57-.2l-1.73.18a.9.9 0 0 1-1-1l.2-1.72a.72.72 0 0 0-.2-.58l-5.63-5.63a12.52 12.52 0 0 0-6.03-3.38c-.88-.2-1.75-.3-2.6-.3-2.05 0-3.6.57-4.56 1.07-.45.23-1.92 1.05-1.92 1.83 0 .23.1.43.26.57.13.11.3.17.49.17h.04l.79-.02c4.1 0 5.96 1.83 6.78 3.18l-3.06 3.08a.67.67 0 0 0-.2.5c0 .2.06.37.2.51l6.96 6.91c.18.17.43.24.68.18l2.2-.57a.9.9 0 0 1 1.13.98l-.15 1.39c-.02.21.05.42.2.58l1.94 1.93a2.3 2.3 0 0 0 1.64.68Z" fill="#fff" stroke="#000" stroke-width="1.4" stroke-miterlimit="10" stroke-linecap="round" stroke-linejoin="round"/></svg>