<svg width="58" height="58" fill="none" xmlns="http://www.w3.org/2000/svg"><path fill-rule="evenodd" clip-rule="evenodd" d="m31.9 17.36 1.48 25.93a1.51 1.51 0 0 0 2.54 1.01l11.54-10.72 2.22-2.06a11.32 11.32 0 0 0 .55-16.07 11.39 11.39 0 0 0-7.95-3.6 11.4 11.4 0 0 0-7.72 2.64l-2.68 2.48" fill="#FFEB40"/><path d="m31.22 45.32 13.45-13.38 2.15-2.14a11.32 11.32 0 0 0 0-16.07 11.4 11.4 0 0 0-15.7-.43l-2.59 2.56-2.12-2.12a11.44 11.44 0 0 0-16.14 0 11.35 11.35 0 0 0 0 16.08l2.13 2.12L28.53 48M48.48 29.02h4.4" stroke="#000" stroke-width="1.4" stroke-linecap="round" stroke-linejoin="round"/><path d="M10.1 29.02h8.42l2.72-6.73 4.94 13.65 1.7-4.98.67-1.94h3.13l2.12-4.12 3.16 7.07 1.55-2.95h4.58M4.8 29.02h5.3" stroke="#000" stroke-width="1.4" stroke-linecap="round" stroke-linejoin="round"/></svg>