<svg width="58" height="61" fill="none" xmlns="http://www.w3.org/2000/svg"><path d="M14.67 29.16v24.48h30.94V29.16" stroke="#000" stroke-width="1.4" stroke-miterlimit="22.93" stroke-linecap="round" stroke-linejoin="round"/><path d="M24.5 31.28h11.43v11.78H24.5V31.28Z" fill="#fff"/><path d="M26.86 33.12h11.43V44.9H26.86V33.12Z" fill="#FFEA52"/><path d="M24.5 31.28h11.43v11.78H24.5V31.28Z" stroke="#000" stroke-width="1.4" stroke-miterlimit="22.93" stroke-linecap="round" stroke-linejoin="round"/><path d="M14.67 20.86V6.8h6.45v8" fill="#fff"/><path d="m53.38 28.26-.15.15.15.3-3.52 3.93-19.94-18.28L9.98 32.64 6.46 28.7l.3-.3-.3-.15L29.77 6.8l.15.15.3-.15 23.16 21.45Z" fill="#fff"/><path d="m54.41 30.25.15-.16L31.4 8.64l-.29.15-.15-.15-8.65 7.96V8.64h-6.45v13.9l-8.21 7.55.3.16-.3.3 3.52 3.93L31.1 16.2l19.94 18.28 3.52-3.93-.15-.3Z" fill="#FFEA52"/><path d="M14.67 20.86V6.8h6.45v8" stroke="#000" stroke-width="1.4" stroke-miterlimit="22.93" stroke-linecap="round" stroke-linejoin="round"/><path d="m53.38 28.26-.15.15.15.3-3.52 3.93-19.94-18.28L9.98 32.64 6.46 28.7l.3-.3-.3-.15L29.77 6.8l.15.15.3-.15 23.16 21.45Z" stroke="#000" stroke-width="1.4" stroke-miterlimit="22.93" stroke-linecap="round" stroke-linejoin="round"/></svg>